<?xml version="1.0" encoding="utf-8"?>
<!-- Generator: Adobe Illustrator 26.0.3, SVG Export Plug-In . SVG Version: 6.00 Build 0)  -->
<svg version="1.0" id="katman_1" xmlns="http://www.w3.org/2000/svg" xmlns:xlink="http://www.w3.org/1999/xlink" x="0px" y="0px"
	 viewBox="0 0 600 450" style="enable-background:new 0 0 600 450;" xml:space="preserve">
<style type="text/css">
	.st0{fill-rule:evenodd;clip-rule:evenodd;fill:#fff;}
	.st1{fill:#fff;}
</style>
<g>
	<path class="st0" d="M235.5,201.9l0.4,7.1c4.5-5.5,10.5-8.2,17.8-8.2c12.7,0,19.2,7.3,19.4,21.9v40.5h-13.7v-39.7
		c0-3.9-0.8-6.8-2.5-8.6c-1.7-1.9-4.4-2.8-8.2-2.8c-5.5,0-9.7,2.5-12.4,7.5v43.6h-13.7v-61.3H235.5L235.5,201.9z M314,264.3
		c-8.7,0-15.8-2.7-21.2-8.2c-5.4-5.5-8.1-12.8-8.1-21.9v-1.7c0-6.1,1.2-11.6,3.5-16.4c2.4-4.8,5.7-8.6,9.9-11.2c4.3-2.7,9-4,14.2-4
		c8.3,0,14.8,2.7,19.3,8c4.5,5.3,6.8,12.9,6.8,22.6v5.5h-39.9c0.4,5.1,2.1,9.1,5.1,12s6.7,4.4,11.2,4.4c6.3,0,11.4-2.5,15.4-7.6
		l7.4,7.1c-2.4,3.7-5.7,6.5-9.8,8.5C323.7,263.3,319.1,264.3,314,264.3L314,264.3z M312.4,211.9c-3.8,0-6.8,1.3-9.1,4
		c-2.3,2.6-3.8,6.3-4.4,11H325v-1c-0.3-4.6-1.5-8.1-3.7-10.4C319.2,213,316.2,211.9,312.4,211.9z M366.4,187.1V202h10.8v10.2h-10.8
		v34.2c0,2.3,0.5,4,1.4,5.1c0.9,1,2.6,1.6,4.9,1.6c1.6,0,3.2-0.2,4.8-0.6V263c-3.1,0.9-6.1,1.3-9,1.3c-10.5,0-15.8-5.8-15.8-17.5
		v-34.7h-10.1v-10.2h10.1v-14.9L366.4,187.1L366.4,187.1z M402.3,263.2h-13.7v-87h13.7V263.2z M431.8,263.2h-13.7V202h13.7V263.2z
		 M417.2,186c0-2.1,0.7-3.9,2-5.3c1.3-1.4,3.2-2.1,5.7-2.1c2.5,0,4.4,0.7,5.8,2.1c1.4,1.4,2,3.2,2,5.3c0,2.1-0.7,3.8-2,5.2
		c-1.4,1.4-3.3,2.1-5.8,2.1c-2.5,0-4.4-0.7-5.7-2.1C417.9,189.8,417.2,188.1,417.2,186L417.2,186z M451.6,263.2v-51.1h-9.3v-10.2
		h9.3v-5.6c0-6.8,1.9-12,5.6-15.7c3.8-3.7,9-5.5,15.8-5.5c2.4,0,5,0.3,7.7,1l-0.3,10.8c-1.7-0.3-3.5-0.5-5.3-0.5
		c-6.6,0-9.8,3.4-9.8,10.1v5.4h12.4v10.2h-12.4v51.1L451.6,263.2L451.6,263.2z M509.2,243.5l12.4-41.6h14.6l-24.3,70.5
		c-3.7,10.3-10.1,15.5-19,15.5c-2,0-4.2-0.3-6.6-1v-10.6l2.6,0.2c3.5,0,6.1-0.6,7.8-1.9c1.7-1.3,3.1-3.4,4.2-6.4l2-5.3l-21.5-61
		h14.8L509.2,243.5L509.2,243.5z"/>
	<path class="st1" d="M153.4,205.7L153.4,205.7c-0.1,0-0.1,0-0.1-0.1c-0.1-0.1-0.1-0.2-0.1-0.3l2.5-15.2l11.7,11.7l-12.1,5.2
		c0,0-0.1,0-0.1,0h0c0,0,0,0-0.1-0.1C154.6,206.4,154,206,153.4,205.7z M170.4,204.7l12.5,12.5c2.6,2.6,3.9,3.9,4.4,5.4
		c0.1,0.2,0.1,0.4,0.2,0.7l-29.8-12.6c0,0,0,0,0,0c-0.1,0-0.3-0.1-0.3-0.2c0-0.1,0.1-0.2,0.3-0.2l0,0
		C157.6,210.2,170.4,204.7,170.4,204.7z M186.9,227.3c-0.6,1.2-1.9,2.5-4,4.6L168.8,246l-18.2-3.8l-0.1,0c-0.2,0-0.3-0.1-0.3-0.2
		c-0.1-1.5-0.9-2.9-2.1-3.8c-0.1-0.1-0.1-0.2,0-0.3c0,0,0,0,0,0l3.4-21l0-0.1c0-0.2,0-0.3,0.2-0.3c1.5-0.2,2.8-1,3.7-2.1
		c0,0,0-0.1,0.1-0.1c0.1,0,0.2,0,0.3,0L186.9,227.3L186.9,227.3z M165.6,249.2l-23.1,23.1l4-24.4l0,0c0,0,0-0.1,0-0.1
		c0-0.1,0.1-0.1,0.2-0.1l0,0c0.9-0.4,1.6-0.9,2.2-1.7c0.1-0.1,0.2-0.2,0.3-0.2c0,0,0.1,0,0.1,0L165.6,249.2L165.6,249.2z
		 M137.5,277.3l-2.6,2.6l-28.8-41.7c0,0,0,0,0,0c0-0.1-0.1-0.1-0.1-0.2c0-0.1,0-0.1,0.1-0.1l0,0c0.1-0.1,0.2-0.3,0.2-0.4l0.1-0.1
		l0,0c0-0.1,0.1-0.2,0.2-0.2c0.1,0,0.2,0,0.2,0l32,6.6c0.1,0,0.2,0.1,0.2,0.1c0,0,0.1,0.1,0.1,0.1c0.5,1.7,1.7,3.1,3.3,3.8
		c0.1,0,0.1,0.1,0,0.3c0,0,0,0.1,0,0.1C141.9,250.5,138.4,271.6,137.5,277.3z M132.1,282.7c-1.9,1.9-3.1,2.9-4.3,3.3
		c-1.3,0.4-2.6,0.4-3.9,0c-1.5-0.5-2.8-1.8-5.4-4.4l-29-29L97,241c0-0.1,0.1-0.1,0.1-0.2c0.1-0.1,0.2,0,0.3,0
		c1.7,0.5,3.6,0.4,5.3-0.3c0.1,0,0.2-0.1,0.2,0c0,0,0.1,0.1,0.1,0.1C103.1,240.6,132.1,282.7,132.1,282.7z M86.7,249.9l-6.6-6.6
		l13.1-5.6c0,0,0.1,0,0.1,0c0.1,0,0.2,0.1,0.2,0.2c0.1,0.2,0.3,0.4,0.4,0.6l0,0.1c0,0.1,0,0.1,0,0.2L86.7,249.9L86.7,249.9z
		 M77.1,240.3l-8.4-8.4c-1.4-1.4-2.5-2.5-3.2-3.4l25.6,5.3c0,0,0.1,0,0.1,0c0.2,0,0.3,0.1,0.3,0.2c0,0.2-0.2,0.2-0.4,0.3l-0.1,0
		C91.1,234.4,77.1,240.3,77.1,240.3z M64,224.2c0-0.5,0.1-1.1,0.3-1.6c0.5-1.5,1.8-2.8,4.4-5.4l10.8-10.8c5,7.2,9.9,14.4,14.9,21.5
		c0.1,0.1,0.2,0.2,0.1,0.3c-0.5,0.5-0.9,1.1-1.3,1.7c0,0.1-0.1,0.1-0.2,0.2c0,0-0.1,0-0.1,0h0L64,224.2L64,224.2z M82.3,203.6
		l14.5-14.5c1.4,0.6,6.3,2.7,10.7,4.6c3.3,1.4,6.4,2.7,7.4,3.1c0.1,0,0.2,0.1,0.2,0.2c0,0.1,0,0.1,0,0.2c-0.5,2.1,0.2,4.3,1.7,5.9
		c0.1,0.1,0,0.2-0.1,0.4l0,0.1L102,226.2c0,0.1-0.1,0.1-0.1,0.2c-0.1,0-0.2,0-0.3,0c-0.6-0.1-1.2-0.2-1.7-0.2
		c-0.5,0-1.1,0.1-1.7,0.2h0c-0.1,0-0.1,0-0.2,0c-0.1,0-0.1-0.1-0.1-0.2C97.8,226.2,82.3,203.6,82.3,203.6z M99.7,186.2l18.7-18.7
		c2.6-2.6,3.9-3.9,5.4-4.4c1.3-0.4,2.6-0.4,3.9,0c1.5,0.5,2.8,1.8,5.4,4.4l4.1,4.1l-13.3,20.6c0,0.1-0.1,0.1-0.1,0.2
		c-0.1,0.1-0.2,0-0.3,0c-2.1-0.6-4.4-0.2-6.2,1.2c-0.1,0.1-0.2,0-0.3,0C115.2,192.7,101.7,187,99.7,186.2L99.7,186.2z M140,174.4
		l12.3,12.3l-3,18.4v0c0,0,0,0.1,0,0.1c0,0.1-0.1,0.1-0.2,0.1c-0.6,0.2-1.2,0.5-1.8,0.9c0,0,0,0-0.1,0.1c0,0-0.1,0.1-0.1,0.1
		c0,0-0.1,0-0.1,0l-18.7-8l0,0c-0.1,0-0.3-0.1-0.3-0.2c-0.1-1-0.5-2.1-1-2.9c-0.1-0.1-0.2-0.3-0.1-0.5
		C126.9,194.7,140,174.4,140,174.4z M127.3,202.1l17.6,7.4c0.1,0,0.2,0.1,0.2,0.2c0,0.1,0,0.1,0,0.2c-0.1,0.3-0.1,0.6-0.1,0.8v0.5
		c0,0.1-0.1,0.2-0.2,0.2l0,0c-2.8,1.2-39.1,16.7-39.1,16.7s-0.1,0-0.2-0.1c-0.1-0.1,0-0.2,0.1-0.4c0,0,0,0,0-0.1l14.4-22.4l0,0
		c0.1-0.1,0.2-0.3,0.3-0.3l0.1,0c0.3,0,0.6,0.1,0.9,0.1c2.2,0,4.2-1.1,5.4-2.9c0,0,0.1-0.1,0.1-0.1C127.1,202,127.2,202,127.3,202.1
		z M107.2,231.7l39.6-16.9c0,0,0.1,0,0.1,0.1c0.2,0.2,0.4,0.4,0.6,0.5l0.1,0.1c0.1,0,0.2,0.1,0.2,0.2c0,0,0,0.1,0,0.1l-3.4,20.8
		l0,0.1c0,0.2,0,0.3-0.2,0.3c-1.8,0.1-3.5,1.1-4.4,2.7l0,0c0,0.1-0.1,0.1-0.2,0.2c-0.1,0-0.2,0-0.2,0l-31.5-6.5
		C107.7,233.3,107.3,231.7,107.2,231.7L107.2,231.7z"/>
</g>
</svg>
